#!OML:ASF Y:\EmotionMaleHayes\Project 1\Capture day 1\Session 1\Male1.ASF
:FULLY-SPECIFIED
:DEGREES
1
root -28.2199 17.0561 1.24401 53.5633 85.4124 54.8552
lowerback 4.69253 1.99684 -6.69788
upperback -0.203098 2.27763 -1.15288
thorax -3.05946 1.23934 2.38912
lowerneck -21.5755 2.33367 5.19627
upperneck 23.4412 2.35114 -2.47155
head 11.2874 1.28056 -1.38669
rclavicle -2.30621e-015 1.03368e-014
rhumerus 0 0 0
rradius 0
rwrist 0
rhand 0 0
rfingers 0
rthumb 0 0
lclavicle -2.30621e-015 1.03368e-014
lhumerus 0 0 0
lradius 0
lwrist 0
lhand 0 0
lfingers 0
lthumb 0 0
rfemur 11.0404 -5.67554 10.6107
rtibia 2.14141
rfoot -16.8694 -3.96896
rtoes 15.5034
lfemur 11.6734 1.70459 -21.0034
ltibia -2.07001
lfoot -10.6048 10.3257
ltoes -7.37917
2
root -28.2249 17.0567 1.24374 53.5686 85.6256 54.8534
lowerback 4.84843 1.89359 -6.75317
upperback -0.289434 2.12266 -0.924691
thorax -3.23384 1.17029 2.66211
lowerneck -21.3234 2.42488 5.09402
upperneck 23.3834 2.56276 -2.58114
head 11.2264 1.35526 -1.37707
rclavicle 1.70396e-014 -3.63776e-014
rhumerus 0 0 0
rradius 0
rwrist 0
rhand 0 0
rfingers 0
rthumb 0 0
lclavicle 1.70396e-014 -3.63776e-014
lhumerus 0 0 0
lradius 0
lwrist 0
lhand 0 0
lfingers 0
lthumb 0 0
rfemur 10.9734 -5.96445 10.7642
rtibia 2.27621
rfoot -16.9598 -3.83492
rtoes 15.2942
lfemur 11.6333 1.58501 -20.8126
ltibia -1.97179
lfoot -10.8378 10.0393
ltoes -4.88162
3
root -28.2276 17.058 1.24401 52.6061 85.766 53.8474
lowerback 4.876 1.85059 -6.69734
upperback -0.334949 2.06568 -0.811066
thorax -3.29344 1.14389 2.75184
lowerneck -21.2687 2.45854 5.08361
upperneck 23.3981 2.62923 -2.61847
head 11.2248 1.38065 -1.37876
rclavicle 4.22417e-016 9.14409e-015
rhumerus 0 0 0
rradius 0
rwrist 0
rhand 0 0
rfingers 0
rthumb 0 0
lclavicle 4.22417e-016 9.14409e-015
lhumerus 0 0 0
lradius 0
lwrist 0
lhand 0 0
lfingers 0
lthumb 0 0
rfemur 10.9013 -5.92987 10.996
rtibia 2.2982
rfoot -17.0123 -3.9503
rtoes 15.2948
lfemur 11.5738 1.53275 -20.6219
ltibia -1.98585
lfoot -10.9244 10.1073
ltoes -4.70647
4
root -28.2282 17.0602 1.24431 53.3787 85.7159 54.6192
lowerback 4.88542 1.85734 -6.75527
upperback -0.330987 2.0702 -0.852662
thorax -3.29567 1.14707 2.7404
lowerneck -21.3367 2.45084 5.07134
upperneck 23.4682 2.60426 -2.55843
head 11.2621 1.37633 -1.35848
rclavicle 2.99435e-014 -3.33958e-014
rhumerus 0 0 0
rradius 0
rwrist 0
rhand 0 0
rfingers 0
rthumb 0 0
lclavicle 2.99435e-014 -3.33958e-014
lhumerus 0 0 0
lradius 0
lwrist 0
lhand 0 0
lfingers 0
lthumb 0 0
rfemur 10.9004 -5.92686 10.919
rtibia 2.29151
rfoot -16.9994 -3.97082
rtoes 15.1349
lfemur 11.5478 1.65024 -20.6748
ltibia -1.97927
lfoot -10.8567 10.0832
ltoes -5.73567
5
root -28.228 17.0602 1.24542 53.8119 85.6971 55.0621
lowerback 4.88217 1.87122 -6.75444
upperback -0.314548 2.08907 -0.90214
thorax -3.27664 1.15542 2.68746
lowerneck -21.4111 2.44727 5.04258
upperneck 23.5228 2.57697 -2.45357
head 11.2939 1.37494 -1.31922
rclavicle -9.92681e-015 -3.97569e-016
rhumerus 0 0 0
rradius 0
rwrist 0
rhand 0 0
rfingers 0
rthumb 0 0
lclavicle -9.92681e-015 -3.97569e-016
lhumerus -32.3136 -7.7949 91.6247
lradius 23.3096
lwrist -13.5455
lhand -14.4928 -23.0904
lfingers 7.12502
lthumb 11.6539 6.56552
rfemur 10.9137 -5.90714 10.8857
rtibia 2.27784
rfoot -16.984 -3.94867
rtoes 15.2358
lfemur 11.5661 1.70068 -20.6898
ltibia -1.98488
lfoot -10.8427 10.0203
ltoes -5.76671
6
root -28.2284 17.0587 1.2467 51.6826 85.8658 52.9139
lowerback 4.84163 1.86884 -6.50545
upperback -0.307535 2.10408 -0.856601
thorax -3.24016 1.15729 2.59603
lowerneck -21.4322 2.45497 4.99895
upperneck 23.5347 2.57728 -2.36562
head 11.3006 1.38243 -1.27943
rclavicle 1.66606e-014 2.98177e-015
rhumerus -36.6765 5.19578 -91.0623
rradius 30.8594
rwrist 3.39049
rhand -7.98281 -33.2484
rfingers 7.12502
rthumb 17.9254 -62.4423
lclavicle 1.66606e-014 2.98177e-015
lhumerus -32.1393 -6.85302 91.0687
lradius 22.3929
lwrist -15.4635
lhand -14.8416 -25.89
lfingers 7.12502
lthumb 11.3176 3.7846
rfemur 10.888 -5.76773 11.2205
rtibia 2.24443
rfoot -17.0062 -4.03099
rtoes 15.7694
lfemur 11.6157 1.39424 -20.4979
ltibia -2.09241
lfoot -10.8095 10.3276
ltoes -5.58581
7
root -28.2283 17.0575 1.24578 51.3511 85.8999 52.5625
lowerback 4.81674 1.85472 -6.46289
upperback -0.315775 2.08969 -0.826829
thorax -3.23288 1.14941 2.60498
lowerneck -21.4367 2.45567 4.96528
upperneck 23.5499 2.59125 -2.36905
head 11.3073 1.38542 -1.27286
rclavicle 2.38852e-014 1.15295e-014
rhumerus -36.702 5.23982 -91.0461
rradius 30.8517
rwrist 3.66261
rhand -8.08133 -33.2171
rfingers 7.12502
rthumb 17.8306 -62.4196
lclavicle 2.38852e-014 1.15295e-014
lhumerus -32.3011 -7.61868 91.6141
lradius 23.3161
lwrist -13.6235
lhand -14.3654 -22.9381
lfingers 7.12502
lthumb 11.7768 6.71077
rfemur 10.8673 -5.79668 11.2623
rtibia 2.25086
rfoot -16.9931 -4.01996
rtoes 15.8892
lfemur 11.7057 0.837379 -20.65
ltibia -2.31644
lfoot -10.7159 10.8796
ltoes -6.14555
8
root -28.2261 17.056 1.24262 53.4658 85.7415 54.6475
lowerback 4.77697 1.83489 -6.68541
upperback -0.334588 2.05275 -0.863915
thorax -3.23354 1.1354 2.69451
lowerneck -21.4383 2.4611 4.96143
upperneck 23.5939 2.61589 -2.41706
head 11.3257 1.39078 -1.28604
rclavicle -5.68711e-015 -1.13307e-014
rhumerus -36.7682 5.35814 -91.0543
rradius 30.8785
rwrist 3.70608
rhand -8.14823 -33.3032
rfingers 7.12502
rthumb 17.7662 -62.5116
lclavicle -5.68711e-015 -1.13307e-014
lhumerus -32.3849 -7.84707 91.8139
lradius 23.6517
lwrist -13.0093
lhand -13.2076 -21.9326
lfingers 7.12502
lthumb 12.893 7.64915
rfemur 10.8638 -5.98352 10.9122
rtibia 2.26641
rfoot -16.9553 -3.84556
rtoes 15.9529
lfemur 11.7162 0.757985 -20.9751
ltibia -2.39989
lfoot -10.6707 10.929
ltoes -6.37314
9
root -28.2246 17.0554 1.24137 53.3742 85.7174 54.5505
lowerback 4.76316 1.85397 -6.65212
upperback -0.340655 2.08016 -0.907632
thorax -3.23181 1.14837 2.62864
lowerneck -21.4391 2.45715 5.01153
upperneck 23.6196 2.60082 -2.44004
head 11.3361 1.38612 -1.30531
rclavicle 8.14241e-015 1.39149e-014
rhumerus -36.7961 5.31722 -91.0973
rradius 30.9138
rwrist 3.65855
rhand -8.21706 -33.4416
rfingers 7.12502
rthumb 17.7 -62.656
lclavicle 8.14241e-015 1.39149e-014
lhumerus -32.3806 -7.9589 91.8076
lradius 23.5964
lwrist -12.9336
lhand -13.9404 -21.915
lfingers 7.12502
lthumb 12.1865 7.71002
rfemur 10.8753 -6.08282 10.8489
rtibia 2.26273
rfoot -16.9293 -3.71015
rtoes 15.7706
lfemur 11.7039 0.997933 -20.9247
ltibia -2.36099
lfoot -10.635 10.6788
ltoes -6.17152
10
root -28.218 17.0536 1.23829 55.3323 85.5515 56.5763
lowerback 4.76056 1.88164 -6.79099
upperback -0.312312 2.10949 -1.02425
thorax -3.20446 1.16386 2.58336
lowerneck -21.4804 2.45129 5.08929
upperneck 23.6559 2.57039 -2.46112
head 11.3581 1.37696 -1.33078
rclavicle -2.01766e-014 4.77083e-015
rhumerus -36.7971 5.16296 -91.1123
rradius 30.9325
rwrist 3.5999
rhand -8.21721 -33.4903
rfingers 7.12502
rthumb 17.6998 -62.7047
lclavicle -2.01766e-014 4.77083e-015
lhumerus -32.3491 -7.87206 91.6419
lradius 23.2379
lwrist -13.5161
lhand -13.9388 -23.1142
lfingers 7.12502
lthumb 12.1881 6.51071
rfemur 11.0046 -6.4715 10.3986
rtibia 2.2844
rfoot -16.8381 -3.36841
rtoes 15.2254
lfemur 11.827 1.00539 -21.2536
ltibia -2.42299
lfoot -10.5659 10.6601
ltoes -6.32317
11
root -28.2035 17.0488 1.22942 61.4887 84.9032 62.8413
lowerback 4.92456 1.84311 -7.54277
upperback -0.440939 1.99198 -1.26051
thorax -3.43866 1.12917 2.75871
lowerneck -21.313 2.48765 5.19636
upperneck 23.7215 2.62088 -2.52959
head 11.3557 1.40468 -1.36671
rclavicle 3.63209e-015 9.93923e-016
rhumerus -37.1641 5.18748 -91.1688
rradius 30.9984
rwrist 3.59436
rhand -8.22946 -33.3445
rfingers 7.12502
rthumb 17.688 -62.56
lclavicle 3.63209e-015 9.93923e-016
lhumerus -32.5798 -6.96939 91.1252
lradius 22.3889
lwrist -15.4516
lhand -16.2515 -25.8492
lfingers 7.12502
lthumb 9.95749 3.89531
rfemur 11.2433 -7.21295 9.02941
rtibia 2.35581
rfoot -16.6767 -2.64752
rtoes 15.5826
lfemur 12.0025 1.04564 -22.3804
ltibia -2.49019
lfoot -10.5154 10.6074
ltoes -7.30944
12
root -28.1954 17.0466 1.22356 65.2518 84.3257 66.6577
lowerback 4.91898 1.82632 -8.1781
upperback -0.435027 1.93276 -1.45069
thorax -3.43922 1.11213 2.91954
lowerneck -21.2221 2.48914 5.19037
upperneck 23.6243 2.6212 -2.50878
head 11.3012 1.40638 -1.3582
rclavicle -1.65437e-014 -1.2921e-014
rhumerus -37.2338 5.1676 -91.17
rradius 30.9959
rwrist 3.6265
rhand -8.28269 -33.2495
rfingers 7.12502
rthumb 17.6368 -62.4696
lclavicle -1.65437e-014 -1.2921e-014
lhumerus -32.6485 -6.99327 91.154
lradius 22.4708
lwrist -15.2503
lhand -14.7768 -25.602
lfingers 7.12502
lthumb 11.38 4.0692
rfemur 11.3543 -7.74204 7.95756
rtibia 2.46527
rfoot -16.5838 -2.11785
rtoes 15.6264
lfemur 12.0509 1.1774 -23.2499
ltibia -2.47242
lfoot -10.449 10.4417
ltoes -7.85625
13
root -28.1941 17.0469 1.2232 65.8058 84.191 67.215
lowerback 4.92231 1.83916 -8.31787
upperback -0.442717 1.94077 -1.49558
thorax -3.45352 1.11957 2.94945
lowerneck -21.2075 2.45305 5.10816
upperneck 23.6124 2.57093 -2.40934
head 11.289 1.38904 -1.31599
rclavicle -1.26898e-014 1.82882e-014
rhumerus -37.2442 5.14962 -91.1602
rradius 30.9596
rwrist 3.6265
rhand -8.25593 -33.2874
rfingers 7.12502
rthumb 17.6626 -62.5051
lclavicle -1.26898e-014 1.82882e-014
lhumerus -32.6746 -7.02366 91.159
lradius 22.4326
lwrist -15.3401
lhand -15.8591 -25.8067
lfingers 7.12502
lthumb 10.3361 3.91932
rfemur 11.3656 -7.933 7.70496
rtibia 2.49613
rfoot -16.581 -1.96059
rtoes 15.1585
lfemur 11.932 1.6473 -23.2825
ltibia -2.24355
lfoot -10.384 9.94281
ltoes -6.72081
14
root -28.1925 17.0463 1.22329 65.2109 84.2686 66.6397
lowerback 4.90923 1.84378 -8.12914
upperback -0.430799 1.95913 -1.53984
thorax -3.42718 1.12368 2.79769
lowerneck -21.2189 2.43422 5.14102
upperneck 23.6377 2.52538 -2.38063
head 11.2989 1.37557 -1.31816
rclavicle -6.18678e-016 2.5842e-015
rhumerus -37.2274 5.07168 -91.2295
rradius 30.9309
rwrist 3.66543
rhand -8.23342 -33.1913
rfingers 7.12502
rthumb 17.6842 -62.4071
lclavicle -6.18678e-016 2.5842e-015
lhumerus -32.6776 -7.19175 91.1283
lradius 22.5156
lwrist -15.0721
lhand -15.5294 -25.1796
lfingers 7.12502
lthumb 10.6541 4.53034
rfemur 11.4069 -7.90202 7.80995
rtibia 2.44627
rfoot -16.6012 -1.89537
rtoes 15.8241
lfemur 11.8916 2.05672 -23.0323
ltibia -2.09558
lfoot -10.3634 9.55894
ltoes -7.80331
15
root -28.1917 17.0466 1.22315 65.1402 84.2978 66.5895
lowerback 4.94051 1.85574 -8.19339
upperback -0.433492 1.96883 -1.46272
thorax -3.45396 1.13078 2.91171
lowerneck -21.217 2.42064 5.06199
upperneck 23.6656 2.5443 -2.41393
head 11.3089 1.37318 -1.31432
rclavicle 2.08317e-014 -1.17283e-014
rhumerus -37.2586 5.12741 -91.1362
rradius 30.9453
rwrist 3.63735
rhand -8.31966 -32.9784
rfingers 7.12502
rthumb 17.6012 -62.2017
lclavicle 2.08317e-014 -1.17283e-014
lhumerus -32.6838 -7.1164 91.2206
lradius 22.5057
lwrist -15.0959
lhand -15.0624 -25.167
lfingers 7.12502
lthumb 11.1045 4.51917
rfemur 11.4412 -7.86276 7.8473
rtibia 2.43411
rfoot -16.6006 -1.82974
rtoes 16.2419
lfemur 12.0493 1.6959 -23.128
ltibia -2.35419
lfoot -10.3436 9.94233
ltoes -8.22423
16
root -28.1913 17.0478 1.2239 65.5489 84.2156 67.0143
lowerback 4.9234 1.8591 -8.29937
upperback -0.397368 1.97119 -1.48853
thorax -3.40969 1.13164 2.9448
lowerneck -21.2322 2.42655 5.069
upperneck 23.6172 2.54747 -2.41729
head 11.2939 1.37357 -1.31604
rclavicle -3.83204e-016 1.90833e-014
rhumerus -37.2046 5.07097 -91.1211
rradius 30.9325
rwrist 3.69143
rhand -8.37792 -32.8988
rfingers 7.12502
rthumb 17.5452 -62.1271
lclavicle -3.83204e-016 1.90833e-014
lhumerus -32.619 -7.21819 91.2279
lradius 22.4578
lwrist -15.0679
lhand -14.6635 -25.371
lfingers 7.12502
lthumb 11.4893 4.29419
rfemur 11.4521 -7.8507 7.74136
rtibia 2.45485
rfoot -16.5825 -1.88727
rtoes 15.6493
lfemur 12.1771 1.31015 -23.3727
ltibia -2.58255
lfoot -10.3879 10.326
ltoes -7.96679
